<svg width="85" height="149" viewBox="0 0 85 149" fill="none" xmlns="http://www.w3.org/2000/svg">
<path d="M47.7547 6.81188C47.7547 10.1771 45.4583 12.6239 42.9462 12.6239C40.4341 12.6239 38.1377 10.1771 38.1377 6.81188C38.1377 3.44661 40.4341 0.999878 42.9462 0.999878C45.4583 0.999878 47.7547 3.44661 47.7547 6.81188Z" fill="#0E6E50" stroke="black" stroke-width="2"/>
<rect x="41.7125" y="13.576" width="2.46809" height="4.288" fill="#0E6E50" stroke="black" stroke-width="2"/>
<path d="M43.0052 117.949L42.9548 117.946L42.9043 117.949C33.701 118.339 27.262 117.38 22.7538 115.358C18.2959 113.359 15.6684 110.296 14.11 106.293C12.5309 102.238 12.0415 97.1946 11.965 91.2536C11.9268 88.2921 11.9909 85.1352 12.0652 81.7913C12.0699 81.58 12.0746 81.3681 12.0793 81.1554C12.1496 78.0063 12.2234 74.6987 12.2234 71.2637C12.2234 56.7595 15.0387 44.3778 20.1889 35.6594C25.3207 26.9722 32.7336 21.9597 42.0533 21.9597C51.4501 21.9597 59.1937 26.2625 64.6253 34.1461C70.08 42.0634 73.2233 53.6334 73.2233 68.1197C73.2233 71.1614 73.2708 74.1171 73.3169 76.9821C73.3825 81.0652 73.4452 84.9641 73.3632 88.6652C73.2241 94.9387 72.6671 100.442 71.0483 104.942C69.443 109.404 66.8009 112.864 62.454 115.112C58.0692 117.38 51.8498 118.468 43.0052 117.949Z" fill="#0E6E50" stroke="black" stroke-width="2"/>
<path d="M62.9468 52.4001C62.9468 55.1589 62.3873 57.2359 61.439 58.8159C60.494 60.3907 59.1192 61.5449 57.3625 62.3899C53.7908 64.108 48.7544 64.5001 42.9468 64.5001C37.1391 64.5001 32.1028 64.108 28.531 62.3899C26.7744 61.5449 25.3995 60.3907 24.4545 58.8159C23.5063 57.2359 22.9468 55.1589 22.9468 52.4001C22.9468 41.3783 31.8993 32.4401 42.9468 32.4401C53.9943 32.4401 62.9468 41.3783 62.9468 52.4001Z" stroke="black" stroke-width="2"/>
<path d="M62.9468 52.4001C62.9468 55.1589 62.3873 57.2359 61.439 58.8159C60.494 60.3907 59.1192 61.5449 57.3625 62.3899C53.7908 64.108 48.7544 64.5001 42.9468 64.5001C37.1391 64.5001 32.1028 64.108 28.531 62.3899C26.7744 61.5449 25.3995 60.3907 24.4545 58.8159C23.5063 57.2359 22.9468 55.1589 22.9468 52.4001C22.9468 41.3783 31.8993 32.4401 42.9468 32.4401C53.9943 32.4401 62.9468 41.3783 62.9468 52.4001Z" fill="#ECEEE6" stroke="black" stroke-width="2"/>
<path d="M34.6638 51.1466C34.6638 52.7438 34.2244 53.3705 33.7841 53.6768C33.2539 54.0456 32.4241 54.1774 31.1957 54.1774C29.9674 54.1774 29.1376 54.0456 28.6074 53.6768C28.1671 53.3705 27.7277 52.7438 27.7277 51.1466C27.7277 49.5435 28.1795 48.1356 28.8583 47.1558C29.5398 46.1721 30.3825 45.6974 31.1957 45.6974C32.009 45.6974 32.8516 46.1721 33.5332 47.1558C34.212 48.1356 34.6638 49.5435 34.6638 51.1466Z" fill="black" stroke="black" stroke-width="2"/>
<path d="M58.3002 51.1466C58.3002 52.7438 57.8607 53.3705 57.4205 53.6768C56.8903 54.0456 56.0604 54.1774 54.8321 54.1774C53.6038 54.1774 52.7739 54.0456 52.2437 53.6768C51.8035 53.3705 51.364 52.7438 51.364 51.1466C51.364 49.5435 51.8158 48.1356 52.4947 47.1558C53.1762 46.1721 54.0188 45.6974 54.8321 45.6974C55.6453 45.6974 56.488 46.1721 57.1695 47.1558C57.8484 48.1356 58.3002 49.5435 58.3002 51.1466Z" fill="black" stroke="black" stroke-width="2"/>
<path d="M11.1168 112.66C11.1168 116.025 8.82041 118.472 6.30827 118.472C3.79613 118.472 1.49976 116.025 1.49976 112.66C1.49976 109.294 3.79613 106.848 6.30827 106.848C8.82041 106.848 11.1168 109.294 11.1168 112.66Z" fill="#0E6E50" stroke="black" stroke-width="2"/>
<path d="M83.4997 112.659C83.4997 116.025 81.2033 118.471 78.6912 118.471C76.1791 118.471 73.8827 116.025 73.8827 112.659C73.8827 109.294 76.1791 106.847 78.6912 106.847C81.2033 106.847 83.4997 109.294 83.4997 112.659Z" fill="#0E6E50" stroke="black" stroke-width="2"/>
<path d="M5.4931 88.087L5.56756 88.1918L5.66611 88.2743L8.43592 90.5946V106.205L6.9469 105.914L6.85188 105.896H6.75507H5.07422V87.4975L5.4931 88.087Z" fill="#0E6E50" stroke="black" stroke-width="2"/>
<path d="M77.5309 105.408C77.3563 105.456 77.1802 105.524 77.0096 105.601V90.6945C77.1202 90.6259 77.244 90.5478 77.3756 90.4622C77.8463 90.1562 78.469 89.7223 78.9335 89.2797C79.2802 88.9493 79.6151 88.5412 79.9245 88.1116V105.505C79.2735 105.339 78.3462 105.183 77.5309 105.408Z" fill="#0E6E50" stroke="black" stroke-width="2"/>
<path d="M10.67 90.0839C7.17013 89.4378 4.18066 85.4563 4.18066 80.172C4.18066 74.8877 7.17013 70.9061 10.67 70.2601V79.648V90.0839Z" fill="#0E6E50" stroke="black" stroke-width="2"/>
<path d="M80.8187 80.1718C80.8187 85.4562 77.8292 89.4377 74.3293 90.0838V80.1718V70.2599C77.8292 70.906 80.8187 74.8875 80.8187 80.1718Z" fill="#0E6E50" stroke="black" stroke-width="2"/>
<path d="M54.0108 122.616C54.0108 124.495 52.8743 126.317 50.7898 127.714C48.7118 129.106 45.7839 130 42.5001 130C39.2164 130 36.2885 129.106 34.2105 127.714C32.126 126.317 30.9895 124.495 30.9895 122.616C30.9895 122.14 31.068 121.846 31.1582 121.665C31.2406 121.499 31.3524 121.386 31.5176 121.297C31.9139 121.083 32.6221 120.999 33.7992 121.091C34.623 121.155 35.545 121.291 36.5854 121.444C36.9947 121.504 37.4223 121.567 37.8694 121.629C39.4222 121.845 41.1498 122.044 42.9469 122.044C44.7458 122.044 46.4188 121.845 47.8926 121.628C48.3681 121.558 48.8146 121.487 49.2355 121.421C50.151 121.277 50.9457 121.151 51.6559 121.09C52.7216 120.998 53.2835 121.09 53.5727 121.268C53.7467 121.376 54.0108 121.633 54.0108 122.616Z" fill="#0E6E50" stroke="black" stroke-width="2"/>
<path d="M58.585 73.3597C55.1306 73.3597 52.3297 76.6446 52.3297 80.6957C52.3297 84.7469 55.1306 88.0317 58.585 88.0317C62.0394 88.0317 64.8404 84.7469 64.8404 80.6957C64.8404 76.6446 62.0394 73.3597 58.585 73.3597ZM58.585 86.7872C55.7171 86.7872 53.3909 84.0592 53.3909 80.6957C53.3909 77.3323 55.7171 74.6042 58.585 74.6042C61.453 74.6042 63.7792 77.3323 63.7792 80.6957C63.7792 84.0592 61.453 86.7872 58.585 86.7872ZM59.2511 80.3158L58.8964 80.2192V78.0201C59.427 78.1052 59.7551 78.4949 59.811 78.9731C59.8179 79.0386 59.8654 79.0861 59.9213 79.0861H60.5482C60.6138 79.0861 60.6655 79.0189 60.6599 78.942C60.5747 77.9218 59.8584 77.2668 58.902 77.1538V76.6184C58.902 76.5463 58.8517 76.4874 58.7903 76.4874H58.3979C58.3365 76.4874 58.2862 76.5463 58.2862 76.6184V77.1587C57.2977 77.2717 56.5241 77.912 56.5241 79.1074C56.5241 80.2143 57.2195 80.7481 57.9497 80.9528L58.2946 81.056V83.3927C57.6775 83.2961 57.3312 82.9096 57.26 82.3889C57.2516 82.3267 57.2041 82.2808 57.1497 82.2808H56.5046C56.439 82.2808 56.3873 82.3463 56.3929 82.4233C56.4557 83.3239 57.038 84.1525 58.2806 84.2589V84.7731C58.2806 84.8452 58.3309 84.9041 58.3923 84.9041H58.7889C58.8503 84.9041 58.9006 84.8452 58.9006 84.7715L58.8978 84.2524C59.9911 84.1394 60.773 83.4533 60.773 82.2219C60.7716 81.0855 60.1558 80.5778 59.2511 80.3158ZM58.2932 80.0506C58.215 80.0244 58.1494 79.9998 58.0838 79.9687C57.6118 79.7689 57.3926 79.4463 57.3926 79.0304C57.3926 78.436 57.7766 78.097 58.2932 78.0201V80.0506ZM58.8964 83.3976V81.2083C58.9397 81.223 58.9788 81.2345 59.0193 81.2443C59.6797 81.4801 59.9017 81.8076 59.9017 82.3103C59.9017 82.9506 59.4912 83.3354 58.8964 83.3976Z" fill="black"/>
<path d="M29.7172 145V143.992H30.4972V139.144H29.7172V138.136H32.9332V139.144H32.1412V143.992H32.9332V145H29.7172ZM33.7512 145V144.1H34.4832V141.124H33.7512V140.224H35.8512L35.8752 140.836L35.4672 140.956C35.8032 140.7 36.1392 140.496 36.4752 140.344C36.8192 140.184 37.1752 140.104 37.5432 140.104C38.0312 140.104 38.4192 140.256 38.7072 140.56C39.0032 140.856 39.1512 141.252 39.1512 141.748V144.1H39.8592V145H37.0872V144.1H37.6992V141.988C37.6992 141.716 37.6312 141.504 37.4952 141.352C37.3672 141.2 37.1912 141.124 36.9672 141.124C36.7432 141.124 36.5152 141.176 36.2832 141.28C36.0512 141.376 35.8152 141.512 35.5752 141.688L35.9352 141.076V144.1H36.5832V145H33.7512ZM43.7256 145.12C43.3336 145.12 42.9856 145.048 42.6816 144.904C42.3856 144.76 42.1176 144.552 41.8776 144.28L42.2616 144.46L42.2376 145H40.1496V144.1H40.8576V138.904H40.1616V138.016H42.3216V140.98L42.0216 140.932C42.2376 140.676 42.5016 140.476 42.8136 140.332C43.1336 140.18 43.4736 140.104 43.8336 140.104C44.2736 140.104 44.6576 140.204 44.9856 140.404C45.3136 140.604 45.5696 140.888 45.7536 141.256C45.9456 141.616 46.0416 142.048 46.0416 142.552C46.0416 143.08 45.9376 143.536 45.7296 143.92C45.5296 144.304 45.2536 144.6 44.9016 144.808C44.5576 145.016 44.1656 145.12 43.7256 145.12ZM43.2576 144.04C43.6256 144.04 43.9296 143.916 44.1696 143.668C44.4096 143.412 44.5296 143.064 44.5296 142.624C44.5296 142.16 44.4136 141.808 44.1816 141.568C43.9496 141.328 43.6496 141.208 43.2816 141.208C43.0656 141.208 42.8456 141.264 42.6216 141.376C42.4056 141.48 42.2096 141.64 42.0336 141.856L42.3216 141.292V144.028L42.0216 143.452C42.1896 143.636 42.3816 143.78 42.5976 143.884C42.8136 143.988 43.0336 144.04 43.2576 144.04ZM49.1649 145.132C48.6449 145.132 48.1849 145.028 47.7849 144.82C47.3929 144.612 47.0889 144.32 46.8729 143.944C46.6569 143.56 46.5489 143.116 46.5489 142.612C46.5489 142.1 46.6569 141.66 46.8729 141.292C47.0889 140.916 47.3929 140.624 47.7849 140.416C48.1849 140.208 48.6449 140.104 49.1649 140.104C49.6929 140.104 50.1529 140.208 50.5449 140.416C50.9449 140.624 51.2529 140.916 51.4689 141.292C51.6929 141.66 51.8049 142.096 51.8049 142.6C51.8049 143.104 51.6929 143.548 51.4689 143.932C51.2529 144.308 50.9449 144.604 50.5449 144.82C50.1529 145.028 49.6929 145.132 49.1649 145.132ZM49.1649 144.028C49.4209 144.028 49.6409 143.972 49.8249 143.86C50.0169 143.74 50.1649 143.576 50.2689 143.368C50.3729 143.152 50.4249 142.896 50.4249 142.6C50.4249 142.312 50.3729 142.064 50.2689 141.856C50.1649 141.648 50.0169 141.488 49.8249 141.376C49.6409 141.264 49.4209 141.208 49.1649 141.208C48.9169 141.208 48.7009 141.264 48.5169 141.376C48.3329 141.488 48.1889 141.652 48.0849 141.868C47.9809 142.076 47.9289 142.324 47.9289 142.612C47.9289 142.9 47.9809 143.152 48.0849 143.368C48.1889 143.576 48.3329 143.74 48.5169 143.86C48.7009 143.972 48.9169 144.028 49.1649 144.028ZM54.4145 145C53.9345 145 53.5665 144.888 53.3105 144.664C53.0625 144.432 52.9385 144.072 52.9385 143.584V141.124H52.2665V140.224H52.9265V138.652L54.3905 138.34V140.224H55.5305V141.124H54.3905V143.368C54.3905 143.632 54.4345 143.816 54.5225 143.92C54.6105 144.024 54.7625 144.076 54.9785 144.076H55.5905V145H54.4145Z" fill="black"/>
</svg>
