<svg width="40" height="63" viewBox="0 0 40 63" fill="none" xmlns="http://www.w3.org/2000/svg">
<path d="M22.7286 2.34C22.7286 3.45672 21.643 4.43 20.2126 4.43C18.7823 4.43 17.6967 3.45672 17.6967 2.34C17.6967 1.22328 18.7823 0.25 20.2126 0.25C21.643 0.25 22.7286 1.22328 22.7286 2.34Z" fill="#073728" stroke="black" stroke-width="0.5"/>
<rect x="19.3989" y="4.57007" width="1.62766" height="1.66" fill="#073728" stroke="black" stroke-width="0.5"/>
<path d="M20.2234 40.6102L20.2143 40.6098L20.2052 40.6101C11.3745 40.8801 7.74936 39.2835 6.25731 36.5189C5.5022 35.1198 5.26982 33.3855 5.23343 31.3467C5.21527 30.3294 5.2458 29.245 5.28115 28.0963C5.28338 28.0238 5.28563 27.951 5.28789 27.8779C5.32135 26.7962 5.35649 25.6599 5.35649 24.4799C5.35649 19.502 6.69465 15.2428 9.15921 12.2331C11.6192 9.22905 15.217 7.44995 19.7874 7.44995C24.372 7.44995 28.1324 8.96952 30.7473 11.7074C33.3633 14.4464 34.8565 18.4297 34.8565 23.4C34.8565 24.4449 34.8791 25.4603 34.901 26.4444C34.9323 27.847 34.9621 29.1861 34.9231 30.4575C34.8569 32.611 34.5921 34.503 33.8189 36.0536C32.2939 39.1115 28.7144 40.9693 20.2234 40.6102Z" fill="#073728" stroke="black" stroke-width="0.5"/>
<path d="M29.9629 18C29.9629 18.9436 29.6988 19.6632 29.2349 20.2209C28.7674 20.7828 28.0803 21.2003 27.202 21.505C25.4372 22.1174 22.977 22.25 20.2129 22.25C17.4487 22.25 14.9886 22.1174 13.2238 21.505C12.3455 21.2003 11.6584 20.7828 11.1909 20.2209C10.727 19.6632 10.4629 18.9436 10.4629 18C10.4629 16.1126 11.525 14.3811 13.2879 13.1118C15.0505 11.8427 17.498 11.05 20.2129 11.05C22.9278 11.05 25.3753 11.8427 27.1379 13.1118C28.9008 14.3811 29.9629 16.1126 29.9629 18Z" stroke="black" stroke-width="0.5"/>
<path d="M29.9629 18C29.9629 18.9436 29.6988 19.6632 29.2349 20.2209C28.7674 20.7828 28.0803 21.2003 27.202 21.505C25.4372 22.1174 22.977 22.25 20.2129 22.25C17.4487 22.25 14.9886 22.1174 13.2238 21.505C12.3455 21.2003 11.6584 20.7828 11.1909 20.2209C10.727 19.6632 10.4629 18.9436 10.4629 18C10.4629 16.1126 11.525 14.3811 13.2879 13.1118C15.0505 11.8427 17.498 11.05 20.2129 11.05C22.9278 11.05 25.3753 11.8427 27.1379 13.1118C28.9008 14.3811 29.9629 16.1126 29.9629 18Z" fill="#ECEEE6" stroke="black" stroke-width="0.5"/>
<path d="M16.4948 17.5695C16.4948 17.8433 16.4416 18.0371 16.3609 18.1774C16.2813 18.3158 16.1652 18.4191 16.0095 18.4972C15.6832 18.6609 15.2067 18.7041 14.6172 18.7041C14.0277 18.7041 13.5511 18.6609 13.2248 18.4972C13.0691 18.4191 12.953 18.3158 12.8734 18.1774C12.7927 18.0371 12.7395 17.8433 12.7395 17.5695C12.7395 16.4744 13.5896 15.6041 14.6172 15.6041C15.6447 15.6041 16.4948 16.4744 16.4948 17.5695Z" fill="black" stroke="black" stroke-width="0.5"/>
<path d="M27.7502 17.5695C27.7502 17.8433 27.697 18.0371 27.6163 18.1774C27.5367 18.3158 27.4206 18.4191 27.2649 18.4972C26.9386 18.6609 26.462 18.7041 25.8725 18.7041C25.283 18.7041 24.8065 18.6609 24.4802 18.4972C24.3245 18.4191 24.2084 18.3158 24.1288 18.1774C24.0481 18.0371 23.9949 17.8433 23.9949 17.5695C23.9949 16.4744 24.845 15.6041 25.8725 15.6041C26.9001 15.6041 27.7502 16.4744 27.7502 17.5695Z" fill="black" stroke="black" stroke-width="0.5"/>
<path d="M5.28192 38.6999C5.28192 39.8166 4.1963 40.7899 2.76596 40.7899C1.33561 40.7899 0.25 39.8166 0.25 38.6999C0.25 37.5831 1.33561 36.6099 2.76596 36.6099C4.1963 36.6099 5.28192 37.5831 5.28192 38.6999Z" fill="#073728" stroke="black" stroke-width="0.5"/>
<path d="M39.7502 38.6999C39.7502 39.8166 38.6646 40.7899 37.2342 40.7899C35.8039 40.7899 34.7183 39.8166 34.7183 38.6999C34.7183 37.5831 35.8039 36.6099 37.2342 36.6099C38.6646 36.6099 39.7502 37.5831 39.7502 38.6999Z" fill="#073728" stroke="black" stroke-width="0.5"/>
<path d="M2.58787 30.2354L2.60986 30.2577L2.63668 30.2739L4.00534 31.101V36.6123L3.01365 36.4724L2.99628 36.47H2.97874H1.95215V29.59L2.58787 30.2354Z" fill="#073728" stroke="black" stroke-width="0.5"/>
<path d="M36.7595 36.2948C36.5735 36.3319 36.37 36.4139 36.2073 36.4893V31.1251C36.2749 31.0956 36.3604 31.0573 36.4543 31.0133C36.6751 30.9097 36.9568 30.7676 37.1627 30.626C37.4938 30.3985 37.8102 30.0484 38.0477 29.7515V36.3928C37.9778 36.376 37.8995 36.3585 37.8158 36.342C37.5104 36.2819 37.0968 36.2277 36.7595 36.2948Z" fill="#073728" stroke="black" stroke-width="0.5"/>
<path d="M5.06916 31.0625C3.07725 30.9424 1.52661 29.397 1.52661 27.54C1.52661 25.683 3.07725 24.1376 5.06916 24.0175V27.36V31.0625Z" fill="#073728" stroke="black" stroke-width="0.5"/>
<path d="M38.4735 27.54C38.4735 29.397 36.9228 30.9424 34.9309 31.0625V27.54V24.0175C36.9228 24.1376 38.4735 25.683 38.4735 27.54Z" fill="#073728" stroke="black" stroke-width="0.5"/>
<path d="M25.7076 42.1201C25.7076 42.7652 25.1587 43.4215 24.1039 43.9315C23.0666 44.4329 21.616 44.7501 20.0002 44.7501C18.3843 44.7501 16.9337 44.4329 15.8964 43.9315C14.8417 43.4215 14.2927 42.7652 14.2927 42.1201C14.2927 41.9595 14.3286 41.8547 14.3787 41.7821C14.4289 41.7094 14.5086 41.6468 14.6349 41.5976C14.9009 41.494 15.3147 41.4713 15.8799 41.5032C16.2828 41.5259 16.7369 41.5741 17.2369 41.6271C17.4298 41.6476 17.6295 41.6688 17.8358 41.6895C18.5711 41.7634 19.3778 41.8301 20.2129 41.8301C21.0484 41.8301 21.8287 41.7634 22.525 41.6894C22.7427 41.6662 22.9506 41.6426 23.1489 41.62C23.5911 41.5697 23.9858 41.5248 24.3346 41.5031C24.8473 41.4712 25.201 41.4952 25.4211 41.5931C25.5227 41.6383 25.588 41.696 25.6309 41.7681C25.6753 41.8426 25.7076 41.9526 25.7076 42.1201Z" fill="#073728" stroke="black" stroke-width="0.5"/>
<g clip-path="url(#clip0_2_22068)">
<path d="M27.6596 25.2C26.0147 25.2 24.6809 26.3283 24.6809 27.72C24.6809 29.1116 26.0147 30.2399 27.6596 30.2399C29.3046 30.2399 30.6384 29.1116 30.6384 27.72C30.6384 26.3283 29.3046 25.2 27.6596 25.2ZM27.6596 29.8124C26.2939 29.8124 25.1862 28.8753 25.1862 27.72C25.1862 26.5646 26.2939 25.6275 27.6596 25.6275C29.0253 25.6275 30.133 26.5646 30.133 27.72C30.133 28.8753 29.0253 29.8124 27.6596 29.8124ZM27.9768 27.5895L27.8079 27.5563V26.8008C28.0606 26.8301 28.2168 26.964 28.2434 27.1282C28.2467 27.1507 28.2693 27.167 28.2959 27.167H28.5945C28.6257 27.167 28.6503 27.144 28.6477 27.1175C28.6071 26.7671 28.266 26.5421 27.8106 26.5033V26.3193C27.8106 26.2946 27.7866 26.2743 27.7574 26.2743H27.5705C27.5413 26.2743 27.5173 26.2946 27.5173 26.3193V26.505C27.0466 26.5438 26.6782 26.7637 26.6782 27.1743C26.6782 27.5546 27.0094 27.738 27.3571 27.8083L27.5213 27.8437V28.6464C27.2275 28.6132 27.0626 28.4805 27.0286 28.3016C27.0247 28.2802 27.0021 28.2645 26.9761 28.2645H26.6689C26.6377 28.2645 26.6131 28.287 26.6157 28.3134C26.6457 28.6228 26.9229 28.9074 27.5147 28.9439V29.1206C27.5147 29.1453 27.5386 29.1656 27.5679 29.1656H27.7567C27.786 29.1656 27.8099 29.1453 27.8099 29.12L27.8086 28.9417C28.3292 28.9029 28.7015 28.6672 28.7015 28.2442C28.7009 27.8538 28.4076 27.6795 27.9768 27.5895ZM27.5207 27.4983C27.4834 27.4893 27.4522 27.4809 27.4209 27.4702C27.1962 27.4016 27.0918 27.2908 27.0918 27.1479C27.0918 26.9437 27.2747 26.8273 27.5207 26.8008V27.4983ZM27.8079 28.6481V27.896C27.8285 27.9011 27.8471 27.905 27.8664 27.9084C28.1809 27.9894 28.2866 28.1019 28.2866 28.2746C28.2866 28.4945 28.0911 28.6267 27.8079 28.6481Z" fill="black"/>
</g>
<path d="M7.21719 59V57.992H7.99719V53.144H7.21719V52.136H10.4332V53.144H9.64119V57.992H10.4332V59H7.21719ZM11.2512 59V58.1H11.9832V55.124H11.2512V54.224H13.3512L13.3752 54.836L12.9672 54.956C13.3032 54.7 13.6392 54.496 13.9752 54.344C14.3192 54.184 14.6752 54.104 15.0432 54.104C15.5312 54.104 15.9192 54.256 16.2072 54.56C16.5032 54.856 16.6512 55.252 16.6512 55.748V58.1H17.3592V59H14.5872V58.1H15.1992V55.988C15.1992 55.716 15.1312 55.504 14.9952 55.352C14.8672 55.2 14.6912 55.124 14.4672 55.124C14.2432 55.124 14.0152 55.176 13.7832 55.28C13.5512 55.376 13.3152 55.512 13.0752 55.688L13.4352 55.076V58.1H14.0832V59H11.2512ZM21.2256 59.12C20.8336 59.12 20.4856 59.048 20.1816 58.904C19.8856 58.76 19.6176 58.552 19.3776 58.28L19.7616 58.46L19.7376 59H17.6496V58.1H18.3576V52.904H17.6616V52.016H19.8216V54.98L19.5216 54.932C19.7376 54.676 20.0016 54.476 20.3136 54.332C20.6336 54.18 20.9736 54.104 21.3336 54.104C21.7736 54.104 22.1576 54.204 22.4856 54.404C22.8136 54.604 23.0696 54.888 23.2536 55.256C23.4456 55.616 23.5416 56.048 23.5416 56.552C23.5416 57.08 23.4376 57.536 23.2296 57.92C23.0296 58.304 22.7536 58.6 22.4016 58.808C22.0576 59.016 21.6656 59.12 21.2256 59.12ZM20.7576 58.04C21.1256 58.04 21.4296 57.916 21.6696 57.668C21.9096 57.412 22.0296 57.064 22.0296 56.624C22.0296 56.16 21.9136 55.808 21.6816 55.568C21.4496 55.328 21.1496 55.208 20.7816 55.208C20.5656 55.208 20.3456 55.264 20.1216 55.376C19.9056 55.48 19.7096 55.64 19.5336 55.856L19.8216 55.292V58.028L19.5216 57.452C19.6896 57.636 19.8816 57.78 20.0976 57.884C20.3136 57.988 20.5336 58.04 20.7576 58.04ZM26.6649 59.132C26.1449 59.132 25.6849 59.028 25.2849 58.82C24.8929 58.612 24.5889 58.32 24.3729 57.944C24.1569 57.56 24.0489 57.116 24.0489 56.612C24.0489 56.1 24.1569 55.66 24.3729 55.292C24.5889 54.916 24.8929 54.624 25.2849 54.416C25.6849 54.208 26.1449 54.104 26.6649 54.104C27.1929 54.104 27.6529 54.208 28.0449 54.416C28.4449 54.624 28.7529 54.916 28.9689 55.292C29.1929 55.66 29.3049 56.096 29.3049 56.6C29.3049 57.104 29.1929 57.548 28.9689 57.932C28.7529 58.308 28.4449 58.604 28.0449 58.82C27.6529 59.028 27.1929 59.132 26.6649 59.132ZM26.6649 58.028C26.9209 58.028 27.1409 57.972 27.3249 57.86C27.5169 57.74 27.6649 57.576 27.7689 57.368C27.8729 57.152 27.9249 56.896 27.9249 56.6C27.9249 56.312 27.8729 56.064 27.7689 55.856C27.6649 55.648 27.5169 55.488 27.3249 55.376C27.1409 55.264 26.9209 55.208 26.6649 55.208C26.4169 55.208 26.2009 55.264 26.0169 55.376C25.8329 55.488 25.6889 55.652 25.5849 55.868C25.4809 56.076 25.4289 56.324 25.4289 56.612C25.4289 56.9 25.4809 57.152 25.5849 57.368C25.6889 57.576 25.8329 57.74 26.0169 57.86C26.2009 57.972 26.4169 58.028 26.6649 58.028ZM31.9145 59C31.4345 59 31.0665 58.888 30.8105 58.664C30.5625 58.432 30.4385 58.072 30.4385 57.584V55.124H29.7665V54.224H30.4265V52.652L31.8905 52.34V54.224H33.0305V55.124H31.8905V57.368C31.8905 57.632 31.9345 57.816 32.0225 57.92C32.1105 58.024 32.2625 58.076 32.4785 58.076H33.0905V59H31.9145Z" fill="black"/>
<defs>
<clipPath id="clip0_2_22068">
<rect width="6.80851" height="5.76" fill="white" transform="translate(24.2554 24.84)"/>
</clipPath>
</defs>
</svg>
