<svg width="40" height="40" viewBox="0 0 40 40" fill="none" xmlns="http://www.w3.org/2000/svg">
<rect width="40" height="40" rx="20" fill="white"/>
<path d="M28.3375 25.2452C32.5773 24.0865 35.6946 20.2073 35.6946 15.6C35.6946 10.173 31.3712 5.75581 25.9816 5.60526V5.59998H10.453H4L9.35609 12.2649H10.453V12.2667H25.7448C27.5628 12.2931 29.0286 13.7748 29.0286 15.5991C29.0286 17.4401 27.5364 18.9324 25.6955 18.9324H23.2649H14.7131L27.1428 34.4H35.6937L28.3375 25.2452Z" fill="#161616"/>
<path d="M11.2 34.4C13.63 34.4 15.6 32.43 15.6 30C15.6 27.5699 13.63 25.6 11.2 25.6C8.76994 25.6 6.79999 27.5699 6.79999 30C6.79999 32.43 8.76994 34.4 11.2 34.4Z" fill="#161616"/>
</svg>
